<svg xmlns="http://www.w3.org/2000/svg" xmlns:xlink="http://www.w3.org/1999/xlink" width="500" zoomAndPan="magnify" viewBox="0 0 375 374.999991" height="500" preserveAspectRatio="xMidYMid meet" version="1.0"><defs><clipPath id="1ddf4c16ed"><path d="M 111.367188 105.085938 L 263.617188 105.085938 L 263.617188 294.085938 L 111.367188 294.085938 Z M 111.367188 105.085938 " clip-rule="nonzero"/></clipPath></defs><g clip-path="url(#1ddf4c16ed)"><path fill="#d8ae5e" d="M 263.546875 181.097656 L 234 151.570312 L 222.65625 140.234375 L 198.1875 115.800781 C 198.1875 115.800781 187.460938 105.085938 187.460938 105.085938 L 179.910156 112.632812 L 179.757812 112.632812 L 179.757812 112.785156 L 152.269531 140.253906 L 149.078125 143.441406 L 111.394531 181.097656 L 122.121094 191.8125 L 140.714844 173.230469 L 140.714844 247.355469 L 155.875 262.503906 L 155.875 210.925781 L 179.777344 210.925781 L 179.777344 286.386719 L 187.480469 294.085938 L 194.9375 286.632812 L 194.9375 210.925781 L 218.859375 210.925781 L 218.859375 262.730469 L 234.019531 247.582031 L 234.019531 172.984375 L 252.863281 191.8125 L 263.585938 181.097656 Z M 155.859375 195.773438 L 155.859375 158.082031 L 179.757812 134.195312 L 179.757812 195.792969 L 155.859375 195.792969 Z M 218.839844 195.773438 L 194.921875 195.773438 L 194.921875 133.949219 L 218.839844 157.835938 Z M 218.839844 195.773438 " fill-opacity="1" fill-rule="nonzero"/></g></svg>